<svg width="250" height="250" viewBox="0 0 250 250" fill="none" xmlns="http://www.w3.org/2000/svg">
<path d="M159.5 59C174.136 59 186 70.8645 186 85.5C186 90.0862 184.834 94.3999 182.784 98.1621C187.181 94.9181 192.616 93 198.5 93C213.136 93 225 104.864 225 119.5C225 134.136 213.136 146 198.5 146C192.616 146 187.181 144.081 182.784 140.837C184.835 144.599 186 148.914 186 153.5C186 168.136 174.136 180 159.5 180C144.864 180 133 168.136 133 153.5C133 149.338 133.96 145.399 135.67 141.895C131.571 144.493 126.712 146 121.5 146C115.616 146 110.181 144.081 105.784 140.837C107.835 144.599 109 148.914 109 153.5C109 168.136 97.1355 180 82.5 180C67.8645 180 56 168.136 56 153.5C56 149.659 56.818 146.009 58.2881 142.714C54.4962 144.807 50.1377 146 45.5 146C30.8645 146 19 134.136 19 119.5C19 104.864 30.8645 93 45.5 93C50.1375 93 54.4963 94.192 58.2881 96.2852C56.8182 92.9904 56 89.3408 56 85.5C56 70.8645 67.8645 59 82.5 59C97.1355 59 109 70.8645 109 85.5C109 90.0862 107.834 94.3999 105.784 98.1621C110.181 94.9181 115.616 93 121.5 93C126.712 93 131.572 94.5059 135.67 97.1045C133.96 93.5998 133 89.6621 133 85.5C133 70.8645 144.864 59 159.5 59ZM159.5 130C146.521 130 136 140.521 136 153.5C136 166.479 146.521 177 159.5 177C172.479 177 183 166.479 183 153.5C183 140.521 172.479 130 159.5 130ZM82.5 130C69.5213 130 59 140.521 59 153.5C59 166.479 69.5213 177 82.5 177C95.4787 177 106 166.479 106 153.5C106 140.521 95.4787 130 82.5 130ZM45.5 96C32.5213 96 22 106.521 22 119.5C22 132.479 32.5213 143 45.5 143C58.4787 143 69 132.479 69 119.5C69 106.521 58.4787 96 45.5 96ZM121.5 96C108.521 96 98 106.521 98 119.5C98 132.479 108.521 143 121.5 143C134.479 143 145 132.479 145 119.5C145 106.521 134.479 96 121.5 96ZM198.5 96C185.521 96 175 106.521 175 119.5C175 132.479 185.521 143 198.5 143C211.479 143 222 132.479 222 119.5C222 106.521 211.479 96 198.5 96ZM98.2148 106.837C93.8178 110.081 88.3835 112 82.5 112C77.862 112 73.5029 110.807 69.7109 108.714C71.1811 112.009 72 115.659 72 119.5C72 123.341 71.1809 126.99 69.7109 130.285C73.5029 128.192 77.8622 127 82.5 127C88.3833 127 93.8178 128.918 98.2148 132.162C96.1648 128.4 95 124.086 95 119.5C95 114.914 96.1645 110.599 98.2148 106.837ZM175.215 106.837C170.818 110.081 165.383 112 159.5 112C154.288 112 149.428 110.494 145.329 107.895C147.039 111.4 148 115.337 148 119.5C148 123.662 147.039 127.6 145.329 131.104C149.428 128.506 154.288 127 159.5 127C165.383 127 170.818 128.918 175.215 132.162C173.165 128.4 172 124.086 172 119.5C172 114.914 173.164 110.599 175.215 106.837ZM82.5 62C69.5213 62 59 72.5213 59 85.5C59 98.4787 69.5213 109 82.5 109C95.4787 109 106 98.4787 106 85.5C106 72.5213 95.4787 62 82.5 62ZM159.5 62C146.521 62 136 72.5213 136 85.5C136 98.4787 146.521 109 159.5 109C172.479 109 183 98.4787 183 85.5C183 72.5213 172.479 62 159.5 62Z" fill="black"/>
</svg>
