<svg width="250" height="250" viewBox="0 0 250 250" fill="none" xmlns="http://www.w3.org/2000/svg">
<path d="M207.5 36C222.136 36 234 47.8645 234 62.5C234 77.1355 222.136 89 207.5 89C199.193 89 191.781 85.1767 186.922 79.1953C188.26 82.363 189 85.8451 189 89.5C189 104.136 177.136 116 162.5 116C156.424 116 150.827 113.953 146.357 110.515C149.285 114.777 151 119.938 151 125.5C151 131.062 149.285 136.222 146.357 140.484C150.827 137.046 156.424 135 162.5 135C177.136 135 189 146.864 189 161.5C189 165.155 188.26 168.636 186.922 171.804C191.781 165.823 199.194 162 207.5 162C222.136 162 234 173.864 234 188.5C234 203.136 222.136 215 207.5 215C192.864 215 181 203.136 181 188.5C181 184.845 181.739 181.363 183.077 178.195C178.218 184.176 170.807 188 162.5 188C147.864 188 136 176.136 136 161.5C136 155.938 137.714 150.777 140.642 146.515C136.172 149.953 130.575 152 124.5 152C118.424 152 112.827 149.953 108.357 146.515C111.285 150.777 113 155.938 113 161.5C113 176.136 101.136 188 86.5 188C78.1932 188 70.7807 184.177 65.9219 178.195C67.2601 181.363 68 184.845 68 188.5C68 203.136 56.1355 215 41.5 215C26.8645 215 15 203.136 15 188.5C15 173.864 26.8645 162 41.5 162C49.8063 162 57.2184 165.823 62.0771 171.804C60.7392 168.636 60 165.154 60 161.5C60 146.864 71.8645 135 86.5 135C92.5753 135 98.1717 137.046 102.642 140.484C99.7142 136.222 98 131.061 98 125.5C98 119.938 99.7139 114.777 102.642 110.515C98.1717 113.953 92.5755 116 86.5 116C71.8645 116 60 104.136 60 89.5C60 85.8452 60.739 82.3629 62.0771 79.1953C57.2184 85.1765 49.8065 89 41.5 89C26.8645 89 15 77.1355 15 62.5C15 47.8645 26.8645 36 41.5 36C56.1355 36 68 47.8645 68 62.5C68 66.1546 67.2599 69.6363 65.9219 72.8037C70.7807 66.8226 78.1935 63 86.5 63C101.136 63 113 74.8645 113 89.5C113 95.0617 111.285 100.222 108.357 104.484C112.827 101.046 118.424 99 124.5 99C130.575 99 136.172 101.046 140.642 104.484C137.714 100.222 136 95.0615 136 89.5C136 74.8645 147.864 63 162.5 63C170.806 63 178.218 66.8229 183.077 72.8037C181.739 69.6364 181 66.1545 181 62.5C181 47.8645 192.864 36 207.5 36ZM207.5 165C194.521 165 184 175.521 184 188.5C184 201.479 194.521 212 207.5 212C220.479 212 231 201.479 231 188.5C231 175.521 220.479 165 207.5 165ZM41.5 165C28.5213 165 18 175.521 18 188.5C18 201.479 28.5213 212 41.5 212C54.4787 212 65 201.479 65 188.5C65 175.521 54.4787 165 41.5 165ZM86.5 138C73.5213 138 63 148.521 63 161.5C63 174.479 73.5213 185 86.5 185C99.4787 185 110 174.479 110 161.5C110 148.521 99.4787 138 86.5 138ZM162.5 138C149.521 138 139 148.521 139 161.5C139 174.479 149.521 185 162.5 185C175.479 185 186 174.479 186 161.5C186 148.521 175.479 138 162.5 138ZM124.5 102C111.521 102 101 112.521 101 125.5C101 138.479 111.521 149 124.5 149C137.479 149 148 138.479 148 125.5C148 112.521 137.479 102 124.5 102ZM86.5 66C73.5213 66 63 76.5213 63 89.5C63 102.479 73.5213 113 86.5 113C99.4787 113 110 102.479 110 89.5C110 76.5213 99.4787 66 86.5 66ZM162.5 66C149.521 66 139 76.5213 139 89.5C139 102.479 149.521 113 162.5 113C175.479 113 186 102.479 186 89.5C186 76.5213 175.479 66 162.5 66ZM41.5 39C28.5213 39 18 49.5213 18 62.5C18 75.4787 28.5213 86 41.5 86C54.4787 86 65 75.4787 65 62.5C65 49.5213 54.4787 39 41.5 39ZM207.5 39C194.521 39 184 49.5213 184 62.5C184 75.4787 194.521 86 207.5 86C220.479 86 231 75.4787 231 62.5C231 49.5213 220.479 39 207.5 39Z" fill="black"/>
</svg>
